  0
SECTION
  2
HEADER
  9
$ACADVER
  1
AC2.10
  9
$INSUNITS
 70
     1
  0
ENDSEC
  0
SECTION
  2
TABLES
  0
TABLE
  2
LAYER
 70
     8
  0
LAYER
  2
0
 62
     7
 70
0
  6
CONTINUOUS
  0
LAYER
  2
1
 62
     1
 70
0
  6
CONTINUOUS
  0
LAYER
  2
2
 62
     2
 70
0
  6
CONTINUOUS
  0
LAYER
  2
3
 62
     3
 70
0
  6
CONTINUOUS
  0
LAYER
  2
4
 62
     4
 70
0
  6
CONTINUOUS
  0
LAYER
  2
5
 62
     5
 70
0
  6
CONTINUOUS
  0
LAYER
  2
6
 62
     6
 70
0
  6
CONTINUOUS
  0
LAYER
  2
7
 62
     7
 70
0
  6
CONTINUOUS
  0
ENDTAB
  0
TABLE
  2
STYLE
 70
     1
  0
STYLE
 70
     0
  2
STANDARD
  3
TXT
 40
0.00
 41
1.00
 42
1.00
 50
0.00
 71
     0
  0
ENDTAB
  0
ENDSEC
  0
SECTION
  2
BLOCKS
  0
BLOCK
  8
0
  2
EPAD
 70
0
 10
0.0
 20
0.0
  0
POLYLINE
  8
0
 66
1
 70
1
 40
0.5
 41
0.5
  0
VERTEX
  8
0
 10
-0.25
 20
0.0
 42
1.0
  0
VERTEX
  8
0
 10
0.25
 20
0.0
 42
1.0
  0
SEQEND
  8
0
  0
ENDBLK
  8
0
  0
BLOCK
  8
0
  2
RPAD
 70
0
 10
0.0
 20
0.0
  0
TRACE
  8
0
 10
-0.5
 20
-0.5
 11
-0.5
 21
0.5
 12
0.5
 22
-0.5
 13
0.5
 23
0.5
  0
ENDBLK
  8
0
  0
ENDSEC
0
SECTION
2
ENTITIES
0
INSERT
8
0
2
EPAD
10
-1.503000
20
-0.491000
41
0.120000
42
0.120000
0
CIRCLE
8
0
10
-1.503000
20
-0.491000
40
0.030000
0
INSERT
8
0
2
EPAD
10
-1.503000
20
-0.291000
41
0.120000
42
0.120000
0
CIRCLE
8
0
10
-1.503000
20
-0.291000
40
0.030000
0
INSERT
8
0
2
EPAD
10
-1.577000
20
0.463000
41
0.120000
42
0.120000
0
CIRCLE
8
0
10
-1.577000
20
0.463000
40
0.030000
0
INSERT
8
0
2
EPAD
10
-1.377000
20
0.463000
41
0.120000
42
0.120000
0
CIRCLE
8
0
10
-1.377000
20
0.463000
40
0.030000
0
INSERT
8
0
2
EPAD
10
-0.852000
20
-0.501000
41
0.090000
42
0.090000
0
CIRCLE
8
0
10
-0.852000
20
-0.501000
40
0.025000
0
INSERT
8
0
2
EPAD
10
-0.452000
20
-0.501000
41
0.090000
42
0.090000
0
CIRCLE
8
0
10
-0.452000
20
-0.501000
40
0.025000
0
INSERT
8
0
2
RPAD
10
0.354000
20
0.443000
41
0.050000
42
0.050000
50
270.000000
0
CIRCLE
8
0
10
0.354000
20
0.443000
40
0.030000
0
INSERT
8
0
2
EPAD
10
0.354000
20
0.343000
41
0.050000
42
0.050000
0
CIRCLE
8
0
10
0.354000
20
0.343000
40
0.030000
0
INSERT
8
0
2
EPAD
10
0.354000
20
0.243000
41
0.050000
42
0.050000
0
CIRCLE
8
0
10
0.354000
20
0.243000
40
0.030000
0
INSERT
8
0
2
EPAD
10
0.054000
20
0.243000
41
0.050000
42
0.050000
0
CIRCLE
8
0
10
0.054000
20
0.243000
40
0.030000
0
INSERT
8
0
2
EPAD
10
0.054000
20
0.343000
41
0.050000
42
0.050000
0
CIRCLE
8
0
10
0.054000
20
0.343000
40
0.030000
0
INSERT
8
0
2
EPAD
10
0.054000
20
0.443000
41
0.050000
42
0.050000
0
CIRCLE
8
0
10
0.054000
20
0.443000
40
0.030000
0
INSERT
8
0
2
RPAD
10
-0.898000
20
0.001000
41
0.080000
42
0.080000
50
270.000000
0
CIRCLE
8
0
10
-0.898000
20
0.001000
40
0.025000
0
INSERT
8
0
2
RPAD
10
-0.898000
20
-0.098000
41
0.080000
42
0.080000
50
270.000000
0
CIRCLE
8
0
10
-0.898000
20
-0.098000
40
0.025000
0
INSERT
8
0
2
RPAD
10
-0.898000
20
-0.198000
41
0.080000
42
0.080000
50
270.000000
0
CIRCLE
8
0
10
-0.898000
20
-0.198000
40
0.025000
0
INSERT
8
0
2
EPAD
10
-0.411000
20
-0.346000
41
0.070000
42
0.070000
0
CIRCLE
8
0
10
-0.411000
20
-0.346000
40
0.025000
0
INSERT
8
0
2
EPAD
10
-0.411000
20
0.053000
41
0.070000
42
0.070000
0
CIRCLE
8
0
10
-0.411000
20
0.053000
40
0.025000
0
INSERT
8
0
2
RPAD
10
1.463000
20
-0.590000
41
0.080000
42
0.080000
50
0.000000
0
CIRCLE
8
0
10
1.463000
20
-0.590000
40
0.025000
0
INSERT
8
0
2
RPAD
10
0.380000
20
-0.490000
41
0.080000
42
0.080000
50
270.000000
0
CIRCLE
8
0
10
0.380000
20
-0.490000
40
0.025000
0
INSERT
8
0
2
RPAD
10
0.380000
20
-0.590000
41
0.080000
42
0.080000
50
270.000000
0
CIRCLE
8
0
10
0.380000
20
-0.590000
40
0.025000
0
INSERT
8
0
2
RPAD
10
-0.111000
20
-0.492000
41
0.080000
42
0.080000
50
270.000000
0
CIRCLE
8
0
10
-0.111000
20
-0.492000
40
0.025000
0
INSERT
8
0
2
RPAD
10
-0.111000
20
-0.592000
41
0.080000
42
0.080000
50
270.000000
0
CIRCLE
8
0
10
-0.111000
20
-0.592000
40
0.025000
0
INSERT
8
0
2
RPAD
10
1.463000
20
-0.098000
41
0.080000
42
0.080000
50
0.000000
0
CIRCLE
8
0
10
1.463000
20
-0.098000
40
0.025000
0
INSERT
8
0
2
EPAD
10
1.055000
20
0.081000
41
0.070000
42
0.070000
0
CIRCLE
8
0
10
1.055000
20
0.081000
40
0.025000
0
INSERT
8
0
2
EPAD
10
0.655000
20
0.081000
41
0.070000
42
0.070000
0
CIRCLE
8
0
10
0.655000
20
0.081000
40
0.025000
0
INSERT
8
0
2
RPAD
10
1.463000
20
0.098000
41
0.080000
42
0.080000
50
0.000000
0
CIRCLE
8
0
10
1.463000
20
0.098000
40
0.025000
0
INSERT
8
0
2
EPAD
10
0.407000
20
-0.281000
41
0.070000
42
0.070000
0
CIRCLE
8
0
10
0.407000
20
-0.281000
40
0.025000
0
INSERT
8
0
2
EPAD
10
0.407000
20
0.118000
41
0.070000
42
0.070000
0
CIRCLE
8
0
10
0.407000
20
0.118000
40
0.025000
0
INSERT
8
0
2
EPAD
10
-0.086000
20
-0.281000
41
0.070000
42
0.070000
0
CIRCLE
8
0
10
-0.086000
20
-0.281000
40
0.025000
0
INSERT
8
0
2
EPAD
10
-0.086000
20
0.118000
41
0.070000
42
0.070000
0
CIRCLE
8
0
10
-0.086000
20
0.118000
40
0.025000
0
INSERT
8
0
2
RPAD
10
1.463000
20
-0.393000
41
0.080000
42
0.080000
50
0.000000
0
CIRCLE
8
0
10
1.463000
20
-0.393000
40
0.025000
0
POLYLINE
8
0
66
1
40
0.008000
41
0.008000
0
VERTEX
8
0
10
-1.784000
20
-0.787000
0
VERTEX
8
0
10
1.660000
20
-0.787000
0
VERTEX
8
0
10
1.660000
20
0.787000
0
VERTEX
8
0
10
-1.784000
20
0.787000
0
VERTEX
8
0
10
-1.784000
20
-0.787000
0
SEQEND
8
0
0
POLYLINE
8
0
66
1
40
0.008000
41
0.008000
0
VERTEX
8
0
10
-1.303000
20
-0.591000
0
VERTEX
8
0
10
-1.703000
20
-0.591000
0
SEQEND
8
0
0
POLYLINE
8
0
66
1
40
0.008000
41
0.008000
0
VERTEX
8
0
10
-1.303000
20
-0.191000
0
VERTEX
8
0
10
-1.703000
20
-0.191000
0
SEQEND
8
0
0
POLYLINE
8
0
66
1
40
0.008000
41
0.008000
0
VERTEX
8
0
10
-1.703000
20
-0.591000
0
VERTEX
8
0
10
-1.703000
20
-0.191000
0
SEQEND
8
0
0
POLYLINE
8
0
66
1
40
0.008000
41
0.008000
0
VERTEX
8
0
10
-1.303000
20
-0.591000
0
VERTEX
8
0
10
-1.303000
20
-0.191000
0
SEQEND
8
0
0
TEXT
8
12632256
10
-1.293000
20
-0.441000
40
0.048000
41
1.041667
50
90.000000
1
J1
0
POLYLINE
8
0
66
1
40
0.008000
41
0.008000
0
VERTEX
8
0
10
-1.677000
20
0.263000
0
VERTEX
8
0
10
-1.677000
20
0.663000
0
SEQEND
8
0
0
POLYLINE
8
0
66
1
40
0.008000
41
0.008000
0
VERTEX
8
0
10
-1.277000
20
0.263000
0
VERTEX
8
0
10
-1.277000
20
0.663000
0
SEQEND
8
0
0
POLYLINE
8
0
66
1
40
0.008000
41
0.008000
0
VERTEX
8
0
10
-1.677000
20
0.663000
0
VERTEX
8
0
10
-1.277000
20
0.663000
0
SEQEND
8
0
0
POLYLINE
8
0
66
1
40
0.008000
41
0.008000
0
VERTEX
8
0
10
-1.677000
20
0.263000
0
VERTEX
8
0
10
-1.277000
20
0.263000
0
SEQEND
8
0
0
TEXT
8
12632256
10
-1.427000
20
0.205000
40
0.048000
41
1.041667
1
J2
0
POLYLINE
8
0
66
1
40
0.008000
41
0.008000
0
VERTEX
8
0
10
-0.754000
20
-0.553000
0
VERTEX
8
0
10
-0.550000
20
-0.553000
0
VERTEX
8
0
10
-0.550000
20
-0.448000
0
VERTEX
8
0
10
-0.754000
20
-0.448000
0
VERTEX
8
0
10
-0.754000
20
-0.553000
0
SEQEND
8
0
0
POLYLINE
8
0
66
1
40
0.008000
41
0.008000
0
VERTEX
8
0
10
-0.582000
20
-0.449000
0
VERTEX
8
0
10
-0.582000
20
-0.552000
0
SEQEND
8
0
0
POLYLINE
8
0
66
1
40
0.008000
41
0.008000
0
VERTEX
8
0
10
-0.522000
20
-0.501000
0
VERTEX
8
0
10
-0.550000
20
-0.501000
0
SEQEND
8
0
0
POLYLINE
8
0
66
1
40
0.008000
41
0.008000
0
VERTEX
8
0
10
-0.754000
20
-0.501000
0
VERTEX
8
0
10
-0.782000
20
-0.501000
0
SEQEND
8
0
0
TEXT
8
12632256
10
-0.602000
20
-0.438000
40
0.048000
41
1.041667
1
D1
0
POLYLINE
8
0
66
1
40
0.008000
41
0.008000
0
VERTEX
8
0
10
0.304000
20
0.493000
0
VERTEX
8
0
10
0.254000
20
0.493000
0
SEQEND
8
0
0
POLYLINE
8
0
66
1
40
0.008000
41
0.008000
0
VERTEX
8
0
10
0.204000
20
0.443000
0
VERTEX
8
0
10
0.194000
20
0.444000
0
VERTEX
8
0
10
0.184000
20
0.447000
0
VERTEX
8
0
10
0.176000
20
0.451000
0
VERTEX
8
0
10
0.168000
20
0.457000
0
VERTEX
8
0
10
0.162000
20
0.464000
0
VERTEX
8
0
10
0.158000
20
0.473000
0
VERTEX
8
0
10
0.155000
20
0.483000
0
VERTEX
8
0
10
0.154000
20
0.493000
0
SEQEND
8
0
0
POLYLINE
8
0
66
1
40
0.008000
41
0.008000
0
VERTEX
8
0
10
0.204000
20
0.443000
0
VERTEX
8
0
10
0.214000
20
0.444000
0
VERTEX
8
0
10
0.224000
20
0.447000
0
VERTEX
8
0
10
0.233000
20
0.451000
0
VERTEX
8
0
10
0.240000
20
0.457000
0
VERTEX
8
0
10
0.246000
20
0.464000
0
VERTEX
8
0
10
0.250000
20
0.473000
0
VERTEX
8
0
10
0.253000
20
0.483000
0
VERTEX
8
0
10
0.254000
20
0.493000
0
SEQEND
8
0
0
POLYLINE
8
0
66
1
40
0.008000
41
0.008000
0
VERTEX
8
0
10
0.154000
20
0.493000
0
VERTEX
8
0
10
0.104000
20
0.493000
0
SEQEND
8
0
0
POLYLINE
8
0
66
1
40
0.008000
41
0.008000
0
VERTEX
8
0
10
0.304000
20
0.193000
0
VERTEX
8
0
10
0.104000
20
0.193000
0
SEQEND
8
0
0
POLYLINE
8
0
66
1
40
0.008000
41
0.008000
0
VERTEX
8
0
10
0.304000
20
0.493000
0
VERTEX
8
0
10
0.304000
20
0.193000
0
SEQEND
8
0
0
POLYLINE
8
0
66
1
40
0.008000
41
0.008000
0
VERTEX
8
0
10
0.104000
20
0.493000
0
VERTEX
8
0
10
0.104000
20
0.193000
0
SEQEND
8
0
0
TEXT
8
12632256
10
0.254000
20
0.503000
40
0.048000
41
1.041667
1
U1
0
POLYLINE
8
0
66
1
40
0.008000
41
0.008000
0
VERTEX
8
0
10
-0.948000
20
-0.248000
0
VERTEX
8
0
10
-0.848000
20
-0.248000
0
VERTEX
8
0
10
-0.848000
20
0.051000
0
VERTEX
8
0
10
-0.948000
20
0.051000
0
VERTEX
8
0
10
-0.948000
20
-0.248000
0
SEQEND
8
0
0
POLYLINE
8
0
66
1
40
0.008000
41
0.008000
0
VERTEX
8
0
10
-0.948000
20
0.051000
0
VERTEX
8
0
10
-0.998000
20
0.051000
0
VERTEX
8
0
10
-0.998000
20
-0.248000
0
VERTEX
8
0
10
-0.948000
20
-0.248000
0
SEQEND
8
0
0
POLYLINE
8
0
66
1
40
0.008000
41
0.008000
0
VERTEX
8
0
10
-0.948000
20
0.051000
0
VERTEX
8
0
10
-0.998000
20
0.001000
0
SEQEND
8
0
0
POLYLINE
8
0
66
1
40
0.008000
41
0.008000
0
VERTEX
8
0
10
-0.948000
20
0.001000
0
VERTEX
8
0
10
-0.998000
20
-0.048000
0
SEQEND
8
0
0
POLYLINE
8
0
66
1
40
0.008000
41
0.008000
0
VERTEX
8
0
10
-0.948000
20
-0.048000
0
VERTEX
8
0
10
-0.998000
20
-0.098000
0
SEQEND
8
0
0
POLYLINE
8
0
66
1
40
0.008000
41
0.008000
0
VERTEX
8
0
10
-0.948000
20
-0.098000
0
VERTEX
8
0
10
-0.998000
20
-0.148000
0
SEQEND
8
0
0
POLYLINE
8
0
66
1
40
0.008000
41
0.008000
0
VERTEX
8
0
10
-0.948000
20
-0.148000
0
VERTEX
8
0
10
-0.998000
20
-0.198000
0
SEQEND
8
0
0
POLYLINE
8
0
66
1
40
0.008000
41
0.008000
0
VERTEX
8
0
10
-0.948000
20
-0.198000
0
VERTEX
8
0
10
-0.998000
20
-0.248000
0
SEQEND
8
0
0
TEXT
8
12632256
10
-1.056000
20
-0.148000
40
0.048000
41
1.041667
50
90.000000
1
Q1
0
POLYLINE
8
0
66
1
40
0.008000
41
0.008000
0
VERTEX
8
0
10
-0.411000
20
-0.296000
0
VERTEX
8
0
10
-0.411000
20
-0.246000
0
SEQEND
8
0
0
POLYLINE
8
0
66
1
40
0.008000
41
0.008000
0
VERTEX
8
0
10
-0.436000
20
-0.246000
0
VERTEX
8
0
10
-0.386000
20
-0.246000
0
VERTEX
8
0
10
-0.386000
20
-0.046000
0
VERTEX
8
0
10
-0.436000
20
-0.046000
0
VERTEX
8
0
10
-0.436000
20
-0.246000
0
SEQEND
8
0
0
POLYLINE
8
0
66
1
40
0.008000
41
0.008000
0
VERTEX
8
0
10
-0.411000
20
-0.046000
0
VERTEX
8
0
10
-0.411000
20
0.003000
0
SEQEND
8
0
0
TEXT
8
12632256
10
-0.376000
20
-0.196000
40
0.048000
41
1.041667
50
90.000000
1
R2
0
POLYLINE
8
0
66
1
40
0.008000
41
0.008000
0
VERTEX
8
0
10
1.413000
20
-0.640000
0
VERTEX
8
0
10
1.513000
20
-0.640000
0
VERTEX
8
0
10
1.513000
20
-0.540000
0
VERTEX
8
0
10
1.413000
20
-0.540000
0
VERTEX
8
0
10
1.413000
20
-0.640000
0
SEQEND
8
0
0
TEXT
8
12632256
10
1.738000
20
-0.530000
40
0.048000
41
1.041667
1
GND_ARDUINO
0
CIRCLE
8
12632256
10
0.380000
20
-0.540000
40
0.000000
0
CIRCLE
8
12632256
10
0.380000
20
-0.540000
40
0.100000
0
POLYLINE
8
0
66
1
40
0.008000
41
0.008000
0
VERTEX
8
0
10
0.280000
20
-0.415000
0
VERTEX
8
0
10
0.280000
20
-0.465000
0
SEQEND
8
0
0
POLYLINE
8
0
66
1
40
0.008000
41
0.008000
0
VERTEX
8
0
10
0.255000
20
-0.440000
0
VERTEX
8
0
10
0.305000
20
-0.440000
0
SEQEND
8
0
0
TEXT
8
12632256
10
0.197000
20
-0.578000
40
0.048000
41
1.041667
50
90.000000
1
D2
0
CIRCLE
8
12632256
10
-0.111000
20
-0.542000
40
0.000000
0
CIRCLE
8
12632256
10
-0.111000
20
-0.542000
40
0.100000
0
POLYLINE
8
0
66
1
40
0.008000
41
0.008000
0
VERTEX
8
0
10
-0.211000
20
-0.417000
0
VERTEX
8
0
10
-0.211000
20
-0.467000
0
SEQEND
8
0
0
POLYLINE
8
0
66
1
40
0.008000
41
0.008000
0
VERTEX
8
0
10
-0.236000
20
-0.442000
0
VERTEX
8
0
10
-0.186000
20
-0.442000
0
SEQEND
8
0
0
TEXT
8
12632256
10
-0.294000
20
-0.579000
40
0.048000
41
1.041667
50
90.000000
1
D3
0
POLYLINE
8
0
66
1
40
0.008000
41
0.008000
0
VERTEX
8
0
10
1.413000
20
-0.148000
0
VERTEX
8
0
10
1.513000
20
-0.148000
0
VERTEX
8
0
10
1.513000
20
-0.048000
0
VERTEX
8
0
10
1.413000
20
-0.048000
0
VERTEX
8
0
10
1.413000
20
-0.148000
0
SEQEND
8
0
0
TEXT
8
12632256
10
1.513000
20
-0.038000
40
0.048000
41
1.041667
1
J3
0
POLYLINE
8
0
66
1
40
0.008000
41
0.008000
0
VERTEX
8
0
10
1.005000
20
0.081000
0
VERTEX
8
0
10
0.955000
20
0.081000
0
SEQEND
8
0
0
POLYLINE
8
0
66
1
40
0.008000
41
0.008000
0
VERTEX
8
0
10
0.755000
20
0.056000
0
VERTEX
8
0
10
0.955000
20
0.056000
0
VERTEX
8
0
10
0.955000
20
0.106000
0
VERTEX
8
0
10
0.755000
20
0.106000
0
VERTEX
8
0
10
0.755000
20
0.056000
0
SEQEND
8
0
0
POLYLINE
8
0
66
1
40
0.008000
41
0.008000
0
VERTEX
8
0
10
0.755000
20
0.081000
0
VERTEX
8
0
10
0.705000
20
0.081000
0
SEQEND
8
0
0
TEXT
8
12632256
10
0.905000
20
0.116000
40
0.048000
41
1.041667
1
R1
0
POLYLINE
8
0
66
1
40
0.008000
41
0.008000
0
VERTEX
8
0
10
1.413000
20
0.048000
0
VERTEX
8
0
10
1.513000
20
0.048000
0
VERTEX
8
0
10
1.513000
20
0.148000
0
VERTEX
8
0
10
1.413000
20
0.148000
0
VERTEX
8
0
10
1.413000
20
0.048000
0
SEQEND
8
0
0
TEXT
8
12632256
10
1.638000
20
0.158000
40
0.048000
41
1.041667
1
PWM ARD
0
POLYLINE
8
0
66
1
40
0.008000
41
0.008000
0
VERTEX
8
0
10
0.407000
20
-0.231000
0
VERTEX
8
0
10
0.407000
20
-0.181000
0
SEQEND
8
0
0
POLYLINE
8
0
66
1
40
0.008000
41
0.008000
0
VERTEX
8
0
10
0.382000
20
-0.181000
0
VERTEX
8
0
10
0.432000
20
-0.181000
0
VERTEX
8
0
10
0.432000
20
0.018000
0
VERTEX
8
0
10
0.382000
20
0.018000
0
VERTEX
8
0
10
0.382000
20
-0.181000
0
SEQEND
8
0
0
POLYLINE
8
0
66
1
40
0.008000
41
0.008000
0
VERTEX
8
0
10
0.407000
20
0.018000
0
VERTEX
8
0
10
0.407000
20
0.068000
0
SEQEND
8
0
0
TEXT
8
12632256
10
0.442000
20
-0.131000
40
0.048000
41
1.041667
50
90.000000
1
R3
0
POLYLINE
8
0
66
1
40
0.008000
41
0.008000
0
VERTEX
8
0
10
-0.086000
20
-0.231000
0
VERTEX
8
0
10
-0.086000
20
-0.181000
0
SEQEND
8
0
0
POLYLINE
8
0
66
1
40
0.008000
41
0.008000
0
VERTEX
8
0
10
-0.111000
20
-0.181000
0
VERTEX
8
0
10
-0.061000
20
-0.181000
0
VERTEX
8
0
10
-0.061000
20
0.018000
0
VERTEX
8
0
10
-0.111000
20
0.018000
0
VERTEX
8
0
10
-0.111000
20
-0.181000
0
SEQEND
8
0
0
POLYLINE
8
0
66
1
40
0.008000
41
0.008000
0
VERTEX
8
0
10
-0.086000
20
0.018000
0
VERTEX
8
0
10
-0.086000
20
0.068000
0
SEQEND
8
0
0
TEXT
8
12632256
10
-0.051000
20
-0.131000
40
0.048000
41
1.041667
50
90.000000
1
R4
0
POLYLINE
8
0
66
1
40
0.008000
41
0.008000
0
VERTEX
8
0
10
1.413000
20
-0.443000
0
VERTEX
8
0
10
1.513000
20
-0.443000
0
VERTEX
8
0
10
1.513000
20
-0.343000
0
VERTEX
8
0
10
1.413000
20
-0.343000
0
VERTEX
8
0
10
1.413000
20
-0.443000
0
SEQEND
8
0
0
TEXT
8
12632256
10
1.788000
20
-0.333000
40
0.048000
41
1.041667
1
5 VCC_ARDUINO
0
ENDSEC
0
EOF

