  0
SECTION
  2
HEADER
  9
$ACADVER
  1
AC2.10
  9
$INSUNITS
 70
     1
  0
ENDSEC
  0
SECTION
  2
TABLES
  0
TABLE
  2
LAYER
 70
     8
  0
LAYER
  2
0
 62
     7
 70
0
  6
CONTINUOUS
  0
LAYER
  2
1
 62
     1
 70
0
  6
CONTINUOUS
  0
LAYER
  2
2
 62
     2
 70
0
  6
CONTINUOUS
  0
LAYER
  2
3
 62
     3
 70
0
  6
CONTINUOUS
  0
LAYER
  2
4
 62
     4
 70
0
  6
CONTINUOUS
  0
LAYER
  2
5
 62
     5
 70
0
  6
CONTINUOUS
  0
LAYER
  2
6
 62
     6
 70
0
  6
CONTINUOUS
  0
LAYER
  2
7
 62
     7
 70
0
  6
CONTINUOUS
  0
ENDTAB
  0
TABLE
  2
STYLE
 70
     1
  0
STYLE
 70
     0
  2
STANDARD
  3
TXT
 40
0.00
 41
1.00
 42
1.00
 50
0.00
 71
     0
  0
ENDTAB
  0
ENDSEC
  0
SECTION
  2
BLOCKS
  0
BLOCK
  8
0
  2
EPAD
 70
0
 10
0.0
 20
0.0
  0
POLYLINE
  8
0
 66
1
 70
1
 40
0.5
 41
0.5
  0
VERTEX
  8
0
 10
-0.25
 20
0.0
 42
1.0
  0
VERTEX
  8
0
 10
0.25
 20
0.0
 42
1.0
  0
SEQEND
  8
0
  0
ENDBLK
  8
0
  0
BLOCK
  8
0
  2
RPAD
 70
0
 10
0.0
 20
0.0
  0
TRACE
  8
0
 10
-0.5
 20
-0.5
 11
-0.5
 21
0.5
 12
0.5
 22
-0.5
 13
0.5
 23
0.5
  0
ENDBLK
  8
0
  0
ENDSEC
0
SECTION
2
ENTITIES
0
POLYLINE
8
0
66
1
40
0.050000
41
0.050000
0
VERTEX
8
0
10
-0.655000
20
0.081000
0
VERTEX
8
0
10
-0.655000
20
0.356000
0
VERTEX
8
0
10
-0.568000
20
0.443000
0
VERTEX
8
0
10
-0.354000
20
0.443000
0
SEQEND
8
0
0
POLYLINE
8
0
66
1
40
0.050000
41
0.050000
0
VERTEX
8
0
10
0.411000
20
0.053000
0
VERTEX
8
0
10
0.411000
20
0.431000
0
VERTEX
8
0
10
0.336000
20
0.506000
0
VERTEX
8
0
10
-0.135000
20
0.506000
0
VERTEX
8
0
10
-0.135000
20
0.324000
0
VERTEX
8
0
10
-0.054000
20
0.243000
0
SEQEND
8
0
0
POLYLINE
8
0
66
1
40
0.050000
41
0.050000
0
VERTEX
8
0
10
0.411000
20
0.053000
0
VERTEX
8
0
10
0.589000
20
0.053000
0
VERTEX
8
0
10
0.641000
20
0.001000
0
VERTEX
8
0
10
0.898000
20
0.001000
0
SEQEND
8
0
0
POLYLINE
8
0
66
1
40
0.050000
41
0.050000
0
VERTEX
8
0
10
0.452000
20
-0.501000
0
VERTEX
8
0
10
0.264000
20
-0.313000
0
VERTEX
8
0
10
0.264000
20
0.256000
0
VERTEX
8
0
10
0.177000
20
0.343000
0
VERTEX
8
0
10
-0.054000
20
0.343000
0
SEQEND
8
0
0
POLYLINE
8
0
66
1
40
0.050000
41
0.050000
0
VERTEX
8
0
10
1.503000
20
-0.491000
0
VERTEX
8
0
10
1.614000
20
-0.380000
0
VERTEX
8
0
10
1.614000
20
0.256000
0
VERTEX
8
0
10
1.577000
20
0.293000
0
VERTEX
8
0
10
1.577000
20
0.463000
0
SEQEND
8
0
0
POLYLINE
8
0
66
1
40
0.050000
41
0.050000
0
VERTEX
8
0
10
1.503000
20
-0.491000
0
VERTEX
8
0
10
1.351000
20
-0.643000
0
VERTEX
8
0
10
0.594000
20
-0.643000
0
VERTEX
8
0
10
0.452000
20
-0.501000
0
SEQEND
8
0
0
POLYLINE
8
0
66
1
40
0.050000
41
0.050000
0
VERTEX
8
0
10
1.503000
20
-0.291000
0
VERTEX
8
0
10
1.062000
20
-0.291000
0
VERTEX
8
0
10
0.852000
20
-0.501000
0
SEQEND
8
0
0
POLYLINE
8
0
66
1
40
0.050000
41
0.050000
0
VERTEX
8
0
10
1.503000
20
-0.291000
0
VERTEX
8
0
10
1.503000
20
0.256000
0
VERTEX
8
0
10
1.477000
20
0.282000
0
VERTEX
8
0
10
1.477000
20
0.506000
0
VERTEX
8
0
10
1.402000
20
0.581000
0
VERTEX
8
0
10
1.164000
20
0.581000
0
VERTEX
8
0
10
1.075000
20
0.491000
0
VERTEX
8
0
10
1.075000
20
-0.018000
0
VERTEX
8
0
10
0.995000
20
-0.098000
0
VERTEX
8
0
10
0.898000
20
-0.098000
0
SEQEND
8
0
0
POLYLINE
8
0
66
1
40
0.050000
41
0.050000
0
VERTEX
8
0
10
0.898000
20
-0.198000
0
VERTEX
8
0
10
1.289000
20
-0.198000
0
VERTEX
8
0
10
1.377000
20
-0.110000
0
VERTEX
8
0
10
1.377000
20
0.463000
0
SEQEND
8
0
0
POLYLINE
8
0
66
1
40
0.050000
41
0.050000
0
VERTEX
8
0
10
0.898000
20
-0.198000
0
VERTEX
8
0
10
0.559000
20
-0.198000
0
VERTEX
8
0
10
0.411000
20
-0.346000
0
SEQEND
8
0
0
POLYLINE
8
0
66
1
40
0.050000
41
0.050000
0
VERTEX
8
0
10
-0.407000
20
-0.281000
0
VERTEX
8
0
10
-0.407000
20
-0.368000
0
VERTEX
8
0
10
-0.380000
20
-0.395000
0
VERTEX
8
0
10
-0.380000
20
-0.490000
0
SEQEND
8
0
0
POLYLINE
8
0
66
1
40
0.050000
41
0.050000
0
VERTEX
8
0
10
-0.407000
20
0.118000
0
VERTEX
8
0
10
-0.645000
20
-0.118000
0
VERTEX
8
0
10
-1.188000
20
-0.118000
0
VERTEX
8
0
10
-1.463000
20
-0.393000
0
SEQEND
8
0
0
POLYLINE
8
0
66
1
40
0.050000
41
0.050000
0
VERTEX
8
0
10
-0.407000
20
0.118000
0
VERTEX
8
0
10
0.086000
20
0.118000
0
SEQEND
8
0
0
POLYLINE
8
0
66
1
40
0.050000
41
0.050000
0
VERTEX
8
0
10
0.111000
20
-0.592000
0
VERTEX
8
0
10
0.189000
20
-0.592000
0
VERTEX
8
0
10
0.189000
20
0.131000
0
VERTEX
8
0
10
0.114000
20
0.206000
0
VERTEX
8
0
10
0.039000
20
0.206000
0
VERTEX
8
0
10
0.014000
20
0.181000
0
VERTEX
8
0
10
-0.192000
20
0.181000
0
VERTEX
8
0
10
-0.354000
20
0.343000
0
SEQEND
8
0
0
POLYLINE
8
0
66
1
40
0.050000
41
0.050000
0
VERTEX
8
0
10
-0.380000
20
-0.590000
0
VERTEX
8
0
10
-0.185000
20
-0.590000
0
VERTEX
8
0
10
-0.183000
20
-0.592000
0
VERTEX
8
0
10
0.111000
20
-0.592000
0
SEQEND
8
0
0
POLYLINE
8
0
66
1
40
0.050000
41
0.050000
0
VERTEX
8
0
10
-0.380000
20
-0.590000
0
VERTEX
8
0
10
-1.463000
20
-0.590000
0
SEQEND
8
0
0
POLYLINE
8
0
66
1
40
0.050000
41
0.050000
0
VERTEX
8
0
10
-1.055000
20
0.081000
0
VERTEX
8
0
10
-1.260000
20
0.081000
0
VERTEX
8
0
10
-1.277000
20
0.098000
0
VERTEX
8
0
10
-1.463000
20
0.098000
0
SEQEND
8
0
0
POLYLINE
8
0
66
1
40
0.050000
41
0.050000
0
VERTEX
8
0
10
0.086000
20
-0.281000
0
VERTEX
8
0
10
0.000000
20
-0.193000
0
VERTEX
8
0
10
-0.635000
20
-0.193000
0
VERTEX
8
0
10
-0.935000
20
-0.493000
0
VERTEX
8
0
10
-1.535000
20
-0.493000
0
VERTEX
8
0
10
-1.610000
20
-0.418000
0
VERTEX
8
0
10
-1.610000
20
-0.245000
0
VERTEX
8
0
10
-1.463000
20
-0.098000
0
SEQEND
8
0
0
POLYLINE
8
0
66
1
40
0.050000
41
0.050000
0
VERTEX
8
0
10
0.086000
20
-0.281000
0
VERTEX
8
0
10
0.086000
20
-0.368000
0
VERTEX
8
0
10
0.111000
20
-0.393000
0
VERTEX
8
0
10
0.111000
20
-0.492000
0
SEQEND
8
0
0
INSERT
8
0
2
EPAD
10
1.503000
20
-0.491000
41
0.120000
42
0.120000
0
CIRCLE
8
0
10
1.503000
20
-0.491000
40
0.030000
0
INSERT
8
0
2
EPAD
10
1.503000
20
-0.291000
41
0.120000
42
0.120000
0
CIRCLE
8
0
10
1.503000
20
-0.291000
40
0.030000
0
INSERT
8
0
2
EPAD
10
1.577000
20
0.463000
41
0.120000
42
0.120000
0
CIRCLE
8
0
10
1.577000
20
0.463000
40
0.030000
0
INSERT
8
0
2
EPAD
10
1.377000
20
0.463000
41
0.120000
42
0.120000
0
CIRCLE
8
0
10
1.377000
20
0.463000
40
0.030000
0
INSERT
8
0
2
EPAD
10
0.852000
20
-0.501000
41
0.090000
42
0.090000
0
CIRCLE
8
0
10
0.852000
20
-0.501000
40
0.025000
0
INSERT
8
0
2
EPAD
10
0.452000
20
-0.501000
41
0.090000
42
0.090000
0
CIRCLE
8
0
10
0.452000
20
-0.501000
40
0.025000
0
INSERT
8
0
2
RPAD
10
-0.354000
20
0.443000
41
0.050000
42
0.050000
50
270.000000
0
CIRCLE
8
0
10
-0.354000
20
0.443000
40
0.030000
0
INSERT
8
0
2
EPAD
10
-0.354000
20
0.343000
41
0.050000
42
0.050000
0
CIRCLE
8
0
10
-0.354000
20
0.343000
40
0.030000
0
INSERT
8
0
2
EPAD
10
-0.354000
20
0.243000
41
0.050000
42
0.050000
0
CIRCLE
8
0
10
-0.354000
20
0.243000
40
0.030000
0
INSERT
8
0
2
EPAD
10
-0.054000
20
0.243000
41
0.050000
42
0.050000
0
CIRCLE
8
0
10
-0.054000
20
0.243000
40
0.030000
0
INSERT
8
0
2
EPAD
10
-0.054000
20
0.343000
41
0.050000
42
0.050000
0
CIRCLE
8
0
10
-0.054000
20
0.343000
40
0.030000
0
INSERT
8
0
2
EPAD
10
-0.054000
20
0.443000
41
0.050000
42
0.050000
0
CIRCLE
8
0
10
-0.054000
20
0.443000
40
0.030000
0
INSERT
8
0
2
RPAD
10
0.898000
20
0.001000
41
0.080000
42
0.080000
50
270.000000
0
CIRCLE
8
0
10
0.898000
20
0.001000
40
0.025000
0
INSERT
8
0
2
RPAD
10
0.898000
20
-0.098000
41
0.080000
42
0.080000
50
270.000000
0
CIRCLE
8
0
10
0.898000
20
-0.098000
40
0.025000
0
INSERT
8
0
2
RPAD
10
0.898000
20
-0.198000
41
0.080000
42
0.080000
50
270.000000
0
CIRCLE
8
0
10
0.898000
20
-0.198000
40
0.025000
0
INSERT
8
0
2
EPAD
10
0.411000
20
-0.346000
41
0.070000
42
0.070000
0
CIRCLE
8
0
10
0.411000
20
-0.346000
40
0.025000
0
INSERT
8
0
2
EPAD
10
0.411000
20
0.053000
41
0.070000
42
0.070000
0
CIRCLE
8
0
10
0.411000
20
0.053000
40
0.025000
0
INSERT
8
0
2
RPAD
10
-1.463000
20
-0.590000
41
0.080000
42
0.080000
50
0.000000
0
CIRCLE
8
0
10
-1.463000
20
-0.590000
40
0.025000
0
INSERT
8
0
2
RPAD
10
-0.380000
20
-0.490000
41
0.080000
42
0.080000
50
270.000000
0
CIRCLE
8
0
10
-0.380000
20
-0.490000
40
0.025000
0
INSERT
8
0
2
RPAD
10
-0.380000
20
-0.590000
41
0.080000
42
0.080000
50
270.000000
0
CIRCLE
8
0
10
-0.380000
20
-0.590000
40
0.025000
0
INSERT
8
0
2
RPAD
10
0.111000
20
-0.492000
41
0.080000
42
0.080000
50
270.000000
0
CIRCLE
8
0
10
0.111000
20
-0.492000
40
0.025000
0
INSERT
8
0
2
RPAD
10
0.111000
20
-0.592000
41
0.080000
42
0.080000
50
270.000000
0
CIRCLE
8
0
10
0.111000
20
-0.592000
40
0.025000
0
INSERT
8
0
2
RPAD
10
-1.463000
20
-0.098000
41
0.080000
42
0.080000
50
0.000000
0
CIRCLE
8
0
10
-1.463000
20
-0.098000
40
0.025000
0
INSERT
8
0
2
EPAD
10
-1.055000
20
0.081000
41
0.070000
42
0.070000
0
CIRCLE
8
0
10
-1.055000
20
0.081000
40
0.025000
0
INSERT
8
0
2
EPAD
10
-0.655000
20
0.081000
41
0.070000
42
0.070000
0
CIRCLE
8
0
10
-0.655000
20
0.081000
40
0.025000
0
INSERT
8
0
2
RPAD
10
-1.463000
20
0.098000
41
0.080000
42
0.080000
50
0.000000
0
CIRCLE
8
0
10
-1.463000
20
0.098000
40
0.025000
0
INSERT
8
0
2
EPAD
10
-0.407000
20
-0.281000
41
0.070000
42
0.070000
0
CIRCLE
8
0
10
-0.407000
20
-0.281000
40
0.025000
0
INSERT
8
0
2
EPAD
10
-0.407000
20
0.118000
41
0.070000
42
0.070000
0
CIRCLE
8
0
10
-0.407000
20
0.118000
40
0.025000
0
INSERT
8
0
2
EPAD
10
0.086000
20
-0.281000
41
0.070000
42
0.070000
0
CIRCLE
8
0
10
0.086000
20
-0.281000
40
0.025000
0
INSERT
8
0
2
EPAD
10
0.086000
20
0.118000
41
0.070000
42
0.070000
0
CIRCLE
8
0
10
0.086000
20
0.118000
40
0.025000
0
INSERT
8
0
2
RPAD
10
-1.463000
20
-0.393000
41
0.080000
42
0.080000
50
0.000000
0
CIRCLE
8
0
10
-1.463000
20
-0.393000
40
0.025000
0
POLYLINE
8
0
66
1
40
0.008000
41
0.008000
0
VERTEX
8
0
10
-1.660000
20
-0.787000
0
VERTEX
8
0
10
1.784000
20
-0.787000
0
VERTEX
8
0
10
1.784000
20
0.787000
0
VERTEX
8
0
10
-1.660000
20
0.787000
0
VERTEX
8
0
10
-1.660000
20
-0.787000
0
SEQEND
8
0
0
ENDSEC
0
EOF

